<?xml version="1.0" encoding="UTF-8"?>
<svg version="1.1" xmlns="http://www.w3.org/2000/svg" width="437" height="135">
<path d="M0 0 C144.21 0 288.42 0 437 0 C437 44.55 437 89.1 437 135 C292.79 135 148.58 135 0 135 C0 90.45 0 45.9 0 0 Z " fill="#FDFDFD" transform="translate(0,0)"/>
<path d="M0 0 C0.85801712 -0.0127597 1.71603424 -0.02551941 2.60005188 -0.03866577 C3.51989365 -0.04089142 4.43973541 -0.04311707 5.38745117 -0.04541016 C6.34181564 -0.05206696 7.29618011 -0.05872375 8.27946472 -0.06558228 C10.29761836 -0.07569999 12.3158054 -0.08039957 14.33398438 -0.08007812 C17.40901421 -0.08444228 20.48259792 -0.12074643 23.55737305 -0.15869141 C25.52156087 -0.16456168 27.48575548 -0.16852966 29.44995117 -0.17041016 C30.36372025 -0.18478119 31.27748932 -0.19915222 32.21894836 -0.21395874 C38.18716508 -0.17162433 41.78525268 0.6998694 46.61791992 4.29052734 C48.50561741 7.26257076 48.87634998 9.58227894 48.90844727 13.0715332 C48.92120697 14.01608871 48.93396667 14.96064423 48.94711304 15.93382263 C48.94933868 16.94743362 48.95156433 17.96104462 48.95385742 19.00537109 C48.96051422 20.05326309 48.96717102 21.10115509 48.97402954 22.18080139 C48.98414885 24.3956629 48.98884678 26.61055485 48.98852539 28.82543945 C48.99289935 32.2120995 49.02922996 35.59745713 49.06713867 38.98388672 C49.07300679 41.13687706 49.07697622 43.28987358 49.07885742 45.44287109 C49.09322845 46.45445786 49.10759949 47.46604462 49.12240601 48.50828552 C49.09448199 52.80906458 49.03664284 55.54570087 46.90161133 59.34350586 C41.52989653 63.92330333 36.22483742 63.59784637 29.46166992 63.59130859 C27.99183655 63.59773628 27.99183655 63.59773628 26.49230957 63.60429382 C24.42464977 63.61002589 22.35696982 63.61054568 20.28930664 63.60620117 C17.12896336 63.6030384 13.969554 63.62652446 10.80932617 63.65185547 C8.7976086 63.65412831 6.78588852 63.65483203 4.77416992 63.65380859 C3.83134155 63.66301834 2.88851318 63.67222809 1.91711426 63.68171692 C-6.69111166 63.62109078 -6.69111166 63.62109078 -10.38208008 60.29052734 C-14.03090667 55.10303893 -13.84954405 49.95961407 -13.85083008 43.85302734 C-13.8584436 42.854729 -13.86605713 41.85643066 -13.87390137 40.82788086 C-13.88467663 38.72333266 -13.88756598 36.61873111 -13.88305664 34.51416016 C-13.88208316 31.30068728 -13.9237596 28.08959409 -13.96801758 24.87646484 C-13.97322417 22.82699064 -13.97591278 20.77750816 -13.97583008 18.72802734 C-13.99222534 17.77162354 -14.00862061 16.81521973 -14.0255127 15.82983398 C-13.98033793 11.45511774 -13.86561144 8.27941909 -11.0949707 4.76318359 C-7.46342533 1.45322215 -4.91871267 0.04988733 0 0 Z " fill="#040404" transform="translate(158.382080078125,24.70947265625)"/>
<path d="M0 0 C0.78375 0.495 1.5675 0.99 2.375 1.5 C2.375 0.51 2.375 -0.48 2.375 -1.5 C5.675 -1.5 8.975 -1.5 12.375 -1.5 C12.375 8.4 12.375 18.3 12.375 28.5 C14.025 28.5 15.675 28.5 17.375 28.5 C17.375 31.14 17.375 33.78 17.375 36.5 C12.425 36.5 7.475 36.5 2.375 36.5 C2.375 35.51 2.375 34.52 2.375 33.5 C1.385 33.995 0.395 34.49 -0.625 35 C-6.2670834 37.37741014 -10.59879762 37.25553309 -16.3125 35.125 C-20.89031959 32.14311751 -22.98651662 27.57565739 -24.625 22.5 C-25.83824644 14.72366808 -24.11364784 9.11255332 -19.6875 2.6875 C-14.34189526 -2.98208078 -6.88726751 -2.8499038 0 0 Z " fill="#090909" transform="translate(319.625,46.5)"/>
<path d="M0 0 C4.95 0 9.9 0 15 0 C15 9.57 15 19.14 15 29 C19.94366102 27.02253559 21.07854402 26.11167879 24 22 C23.01 22 22.02 22 21 22 C21 19.36 21 16.72 21 14 C27.6 14 34.2 14 41 14 C41 16.31 41 18.62 41 21 C40.175 21.144375 39.35 21.28875 38.5 21.4375 C33.3697139 23.7278063 30.48943422 27.69577403 27 32 C28.31041783 34.34971473 29.64408876 36.67700501 31 39 C31.433125 39.78375 31.86625 40.5675 32.3125 41.375 C34.88366585 43.85093749 37.54610928 43.739329 41 44 C41 46.31 41 48.62 41 51 C36.40299 51.90787345 32.56150411 52.19061286 28 51 C24.55827944 47.98252683 22.3451447 44.05492225 20.0234375 40.16015625 C18.30911491 36.75391531 18.30911491 36.75391531 15 36 C15 41.28 15 46.56 15 52 C10.05 52 5.1 52 0 52 C0 49.36 0 46.72 0 44 C1.65 44 3.3 44 5 44 C5 32.12 5 20.24 5 8 C3.35 8 1.7 8 0 8 C0 5.36 0 2.72 0 0 Z " fill="#090909" transform="translate(376,31)"/>
<path d="M0 0 C15.51 0 31.02 0 47 0 C47 5.28 47 10.56 47 16 C44.69 16 42.38 16 40 16 C39.505 12.04 39.505 12.04 39 8 C35.7 8 32.4 8 29 8 C29 18.56 29 29.12 29 40 C30.65 40 32.3 40 34 40 C34 42.97 34 45.94 34 49 C27.4 49 20.8 49 14 49 C14 46.03 14 43.06 14 40 C15.32 40 16.64 40 18 40 C18 29.77 18 19.54 18 9 C14.7 9 11.4 9 8 9 C8 11.31 8 13.62 8 16 C5.36 16 2.72 16 0 16 C0 10.72 0 5.44 0 0 Z " fill="#080808" transform="translate(213,34)"/>
<path d="M0 0 C13.53 0 27.06 0 41 0 C41 5.28 41 10.56 41 16 C38.36 16 35.72 16 33 16 C33 13.69 33 11.38 33 9 C27.39 9 21.78 9 16 9 C16 12.96 16 16.92 16 21 C20.62 21 25.24 21 30 21 C30 23.31 30 25.62 30 28 C25.38 28 20.76 28 16 28 C16 31.96 16 35.92 16 40 C17.32 40 18.64 40 20 40 C20 42.97 20 45.94 20 49 C16.85411056 49.02683697 13.70844729 49.04675902 10.5625 49.0625 C9.66466797 49.07087891 8.76683594 49.07925781 7.84179688 49.08789062 C6.56079102 49.09272461 6.56079102 49.09272461 5.25390625 49.09765625 C4.46314697 49.10289307 3.6723877 49.10812988 2.85766602 49.11352539 C1 49 1 49 0 48 C-0.14115161 45.32941149 -0.04247107 42.67567762 0 40 C1.65 40 3.3 40 5 40 C5 29.44 5 18.88 5 8 C3.35 8 1.7 8 0 8 C0 5.36 0 2.72 0 0 Z " fill="#0C0C0C" transform="translate(30,34)"/>
<path d="M0 0 C4.62 0 9.24 0 14 0 C14.33 0.99 14.66 1.98 15 3 C15.474375 2.505 15.94875 2.01 16.4375 1.5 C20.25748126 -0.73608659 23.67685314 -0.52629614 28 0 C32.18224392 1.2625642 34.1285563 2.73140176 36.15234375 6.5 C38.47269676 11.34781191 38.46116837 15.71266881 38.25 21 C38.23195312 21.87011719 38.21390625 22.74023438 38.1953125 23.63671875 C38.14868436 25.75829907 38.07696077 27.87930335 38 30 C39.32 30 40.64 30 42 30 C42 32.64 42 35.28 42 38 C37.38 38 32.76 38 28 38 C27.92652344 35.36257812 27.92652344 35.36257812 27.8515625 32.671875 C27.77652811 30.36456746 27.70098057 28.05727657 27.625 25.75 C27.5940625 24.59113281 27.563125 23.43226562 27.53125 22.23828125 C27.49257812 21.12324219 27.45390625 20.00820312 27.4140625 18.859375 C27.3826416 17.83295898 27.3512207 16.80654297 27.31884766 15.74902344 C27.00363375 13.03132927 26.38967649 11.33075565 25 9 C20.38262627 8.53015917 20.38262627 8.53015917 16.30151367 10.24731445 C14.71663658 12.38159182 14.58184609 13.5919403 14.48828125 16.23046875 C14.45283203 17.03291016 14.41738281 17.83535156 14.38085938 18.66210938 C14.34702148 19.91217773 14.34702148 19.91217773 14.3125 21.1875 C14.27833984 22.03248047 14.24417969 22.87746094 14.20898438 23.74804688 C14.12658529 25.83156649 14.06161355 27.91576216 14 30 C15.65 30 17.3 30 19 30 C19 32.64 19 35.28 19 38 C12.73 38 6.46 38 0 38 C0 35.36 0 32.72 0 30 C1.32 30 2.64 30 4 30 C4 22.74 4 15.48 4 8 C2.68 8 1.36 8 0 8 C0 5.36 0 2.72 0 0 Z " fill="#0B0B0B" transform="translate(97,45)"/>
<path d="M0 0 C3.96 0 7.92 0 12 0 C12 2.64 12 5.28 12 8 C12.7425 7.484375 13.485 6.96875 14.25 6.4375 C17 5 17 5 19.0625 4.875 C22.31888744 6.76580561 23.35834839 9.65806636 25 13 C25 13.66 25 14.32 25 15 C23.37373596 16.38232443 21.7074998 17.71937515 20 19 C21.65 19.99 23.3 20.98 25 22 C24.32902328 26.19360449 22.1441606 29.40334352 20 33 C15.25 31.125 15.25 31.125 13 30 C12.7834375 31.7015625 12.7834375 31.7015625 12.5625 33.4375 C12 37 12 37 11 38 C9.33570949 38.09823937 7.66718069 38.12973631 6 38.125 C4.63875 38.12886719 4.63875 38.12886719 3.25 38.1328125 C1 38 1 38 0 37 C-0.04092937 34.66702567 -0.04241723 32.33294775 0 30 C-0.556875 30.350625 -1.11375 30.70125 -1.6875 31.0625 C-4.66125011 32.26807437 -6.01310836 32.14880448 -9 31 C-11.23815819 28.31421018 -12.01917977 26.82473022 -11.9375 23.3125 C-11 21 -11 21 -8.9375 19.6875 C-8.298125 19.460625 -7.65875 19.23375 -7 19 C-8.65 17.68 -10.3 16.36 -12 15 C-11.5205537 10.78087253 -10.83374881 8.20336822 -8 5 C-3.25 5.875 -3.25 5.875 -1 7 C-0.67 4.69 -0.34 2.38 0 0 Z " fill="#080808" transform="translate(170,38)"/>
<path d="M0 0 C1.30453125 -0.01417969 2.6090625 -0.02835938 3.953125 -0.04296875 C7.75 0.1875 7.75 0.1875 13.75 2.1875 C13.75 7.1375 13.75 12.0875 13.75 17.1875 C10.78 17.1875 7.81 17.1875 4.75 17.1875 C4.75 14.2175 4.75 11.2475 4.75 8.1875 C-1.31473348 9.23685121 -1.31473348 9.23685121 -6.875 11.6875 C-9.14125118 15.8079567 -8.37301341 19.73977585 -7.25 24.1875 C-5.95558862 26.98254081 -5.95558862 26.98254081 -3.25 28.1875 C2.79119526 29.18073326 7.38609373 27.92651597 12.75 25.1875 C13.91754401 27.65994615 14.7686359 29.55387928 14.6875 32.3125 C13.30998706 35.06752587 11.47594931 35.85622243 8.75 37.1875 C2.82215462 39.02020273 -3.76788071 39.0148731 -9.625 37.0625 C-14.70779946 33.43192896 -17.95147609 29.32597666 -19.25 23.1875 C-19.79930887 17.18433873 -19.83351391 12.27377781 -16.25 7.1875 C-10.82352467 1.84895366 -7.74496388 0.03796551 0 0 Z " fill="#070707" transform="translate(358.25,44.8125)"/>
<path d="M0 0 C4.95 0 9.9 0 15 0 C15.33 1.65 15.66 3.3 16 5 C16.598125 4.360625 17.19625 3.72125 17.8125 3.0625 C21.59235706 -0.50136523 25.01856026 -0.09398943 30 0 C30 2.97 30 5.94 30 9 C28.783125 9.226875 27.56625 9.45375 26.3125 9.6875 C22.02920697 10.75072877 19.7995683 12.52174848 17 16 C15.99740493 19.00778521 15.69685358 21.53820647 15.4375 24.6875 C15.35371094 25.68136719 15.26992188 26.67523438 15.18359375 27.69921875 C15.12300781 28.45847656 15.06242187 29.21773437 15 30 C16.65 30 18.3 30 20 30 C20 32.64 20 35.28 20 38 C13.4 38 6.8 38 0 38 C0 35.36 0 32.72 0 30 C1.65 30 3.3 30 5 30 C5 22.74 5 15.48 5 8 C3.35 8 1.7 8 0 8 C0 5.36 0 2.72 0 0 Z " fill="#0D0D0D" transform="translate(264,45)"/>
<path d="M0 0 C4.95 0 9.9 0 15 0 C15 9.9 15 19.8 15 30 C16.65 30 18.3 30 20 30 C20 32.64 20 35.28 20 38 C13.4 38 6.8 38 0 38 C0 35.36 0 32.72 0 30 C1.65 30 3.3 30 5 30 C5 22.41 5 14.82 5 7 C3.35 7 1.7 7 0 7 C0 4.69 0 2.38 0 0 Z " fill="#0D0D0D" transform="translate(74,45)"/>
<path d="M0 0 C1.3931543 0.01450195 1.3931543 0.01450195 2.81445312 0.02929688 C3.78189453 0.05443359 4.74933594 0.07957031 5.74609375 0.10546875 C6.71740234 0.11900391 7.68871094 0.13253906 8.68945312 0.14648438 C11.18794904 0.18294609 13.68549496 0.23652926 16.18359375 0.29296875 C16.84359375 0.29296875 17.50359375 0.29296875 18.18359375 0.29296875 C20.85026042 0.29296875 23.51692708 0.29296875 26.18359375 0.29296875 C26.18359375 1.28296875 26.18359375 2.27296875 26.18359375 3.29296875 C24.20359375 3.29296875 22.22359375 3.29296875 20.18359375 3.29296875 C20.18359375 3.95296875 20.18359375 4.61296875 20.18359375 5.29296875 C22.16359375 5.95296875 24.14359375 6.61296875 26.18359375 7.29296875 C26.67859375 9.76796875 26.67859375 9.76796875 27.18359375 12.29296875 C24.0304459 14.39506732 23.32256294 14.53644485 19.734375 14.48828125 C18.46303711 14.47861328 18.46303711 14.47861328 17.16601562 14.46875 C16.28494141 14.45199219 15.40386719 14.43523437 14.49609375 14.41796875 C13.60341797 14.40894531 12.71074219 14.39992188 11.79101562 14.390625 C9.58827061 14.36706623 7.38606787 14.33417204 5.18359375 14.29296875 C4.85359375 13.63296875 4.52359375 12.97296875 4.18359375 12.29296875 C3.85359375 12.95296875 3.52359375 13.61296875 3.18359375 14.29296875 C-4.09998834 14.65117771 -4.09998834 14.65117771 -6.81640625 13.29296875 C-8.4013604 10.12306044 -8.52780843 6.75233622 -7.81640625 3.29296875 C-5.46231049 0.21005658 -3.79677857 -0.07006452 0 0 Z " fill="#F3F3F3" transform="translate(321.81640625,100.70703125)"/>
<path d="M0 0 C3.96 0 7.92 0 12 0 C12 2.64 12 5.28 12 8 C12.7425 7.484375 13.485 6.96875 14.25 6.4375 C17 5 17 5 19.0625 4.875 C22.31888744 6.76580561 23.35834839 9.65806636 25 13 C25 13.66 25 14.32 25 15 C23.37373596 16.38232443 21.7074998 17.71937515 20 19 C21.65 19.99 23.3 20.98 25 22 C24.32902328 26.19360449 22.1441606 29.40334352 20 33 C15.25 31.125 15.25 31.125 13 30 C12.7834375 31.7015625 12.7834375 31.7015625 12.5625 33.4375 C12 37 12 37 11 38 C9.33570949 38.09823937 7.66718069 38.12973631 6 38.125 C4.63875 38.12886719 4.63875 38.12886719 3.25 38.1328125 C1 38 1 38 0 37 C-0.04092937 34.66702567 -0.04241723 32.33294775 0 30 C-0.556875 30.350625 -1.11375 30.70125 -1.6875 31.0625 C-4.66125011 32.26807437 -6.01310836 32.14880448 -9 31 C-11.23815819 28.31421018 -12.01917977 26.82473022 -11.9375 23.3125 C-11 21 -11 21 -8.9375 19.6875 C-8.298125 19.460625 -7.65875 19.23375 -7 19 C-8.65 17.68 -10.3 16.36 -12 15 C-11.5205537 10.78087253 -10.83374881 8.20336822 -8 5 C-3.25 5.875 -3.25 5.875 -1 7 C-0.67 4.69 -0.34 2.38 0 0 Z M3 2 C3 4.97 3 7.94 3 11 C1.906875 10.505 0.81375 10.01 -0.3125 9.5 C-3.79966245 7.81160094 -3.79966245 7.81160094 -7 8 C-7.99 9.98 -8.98 11.96 -10 14 C-6.535 15.98 -6.535 15.98 -3 18 C-6.75 21.875 -6.75 21.875 -9 23 C-8.67 24.65 -8.34 26.3 -8 28 C-5.83032311 28.95465783 -4.43671207 29.14401212 -2.17578125 28.3984375 C-0.4315257 27.64129615 1.28627131 26.82390802 3 26 C3 28.97 3 31.94 3 35 C5.31 35 7.62 35 10 35 C10 32.03 10 29.06 10 26 C14.455 27.98 14.455 27.98 19 30 C21.17637642 26.43741353 21.17637642 26.43741353 20.9375 23.9375 C19.60554053 21.18478377 17.66313685 20.36571121 15 19 C15.804375 18.4225 16.60875 17.845 17.4375 17.25 C20.02587003 15.26245703 20.02587003 15.26245703 21 13 C21 10.21632375 19.81104736 9.02837304 18 7 C14.04 8.98 14.04 8.98 10 11 C10 8.03 10 5.06 10 2 C7.69 2 5.38 2 3 2 Z " fill="#E3E3E3" transform="translate(170,38)"/>
<path d="M0 0 C2.94759066 0.83476689 4.15606542 2.14422026 6 4.56640625 C6.53125 7.44140625 6.53125 7.44140625 6.5 10.56640625 C6.5103125 11.59765625 6.520625 12.62890625 6.53125 13.69140625 C5.87510937 17.24228497 4.86656358 18.42153033 2 20.56640625 C-0.7690197 21.35060128 -3.20226197 21.20277699 -6 20.56640625 C-8.91074647 18.3833464 -9.81054343 16.77024484 -10.375 13.18359375 C-10.57320193 9.03374083 -10.31183753 6.21606778 -8.5 2.44140625 C-5.47461826 0.17236994 -3.68913955 0.00720535 0 0 Z " fill="#FAFAFA" transform="translate(316,53.43359375)"/>
<path d="M0 0 C3.66666667 0 7.33333333 0 11 0 C11 0.99 11 1.98 11 3 C9.02 3 7.04 3 5 3 C5 3.66 5 4.32 5 5 C6.98 5.66 8.96 6.32 11 7 C11.33 8.65 11.66 10.3 12 12 C8.79619983 14.13586678 7.98060033 14.23132175 4.3125 14.125 C3.50425781 14.10695313 2.69601562 14.08890625 1.86328125 14.0703125 C0.94095703 14.03550781 0.94095703 14.03550781 0 14 C0 13.01 0 12.02 0 11 C-2.31 11 -4.62 11 -7 11 C-7 10.01 -7 9.02 -7 8 C-5.02 8 -3.04 8 -1 8 C-1 7.34 -1 6.68 -1 6 C-2.98 6 -4.96 6 -7 6 C-7 4.68 -7 3.36 -7 2 C-4.69 2 -2.38 2 0 2 C0 1.34 0 0.68 0 0 Z " fill="#CDCDCD" transform="translate(337,101)"/>
<path d="M0 0 C2.6923481 2.18753283 2.93936827 3.58423955 3.4375 7 C3 10 3 10 1.4375 12.375 C-1.92058549 14.61372366 -4.04745604 14.57491549 -8 14 C-9.9375 12.4375 -9.9375 12.4375 -11 10 C-11.35773097 6.60155579 -11.58904125 4.14126742 -10 1.0625 C-6.75895557 -0.65930485 -3.57577233 -0.66300779 0 0 Z " fill="#1A1A1A" transform="translate(214,101)"/>
<path d="M0 0 C1.60875 -0.04125 3.2175 -0.0825 4.875 -0.125 C5.77992188 -0.14820312 6.68484375 -0.17140625 7.6171875 -0.1953125 C10 0 10 0 12 2 C12.23779528 5.0913386 11.98965019 7.03104944 11 10 C11.38932856 12.14255793 11.38932856 12.14255793 12 14 C10.68 14 9.36 14 8 14 C7.71125 13.360625 7.4225 12.72125 7.125 12.0625 C6.17176549 9.84793921 6.17176549 9.84793921 4 9 C4 10.65 4 12.3 4 14 C2.68 14 1.36 14 0 14 C0 9.38 0 4.76 0 0 Z " fill="#333333" transform="translate(233,101)"/>
<path d="M0 0 C5 1 5 1 6.8125 3.5625 C7.204375 4.366875 7.59625 5.17125 8 6 C8.33 4.02 8.66 2.04 9 0 C10.32 0 11.64 0 13 0 C13 4.62 13 9.24 13 14 C11.68 14 10.36 14 9 14 C6.75 11 6.75 11 5 8 C4.67 9.98 4.34 11.96 4 14 C2.68 14 1.36 14 0 14 C0 9.38 0 4.76 0 0 Z " fill="#1E1E1E" transform="translate(131,101)"/>
<path d="M0 0 C1.32 0 2.64 0 4 0 C6.25 3 6.25 3 8 6 C8.33 4.02 8.66 2.04 9 0 C10.32 0 11.64 0 13 0 C13 4.62 13 9.24 13 14 C11.68 14 10.36 14 9 14 C6.75 11 6.75 11 5 8 C4.67 9.98 4.34 11.96 4 14 C2.68 14 1.36 14 0 14 C0 9.38 0 4.76 0 0 Z " fill="#1D1D1D" transform="translate(299,101)"/>
<path d="M0 0 C0.99 0.66 1.98 1.32 3 2 C3.375 5.5 3.375 5.5 3 9 C-0.80455581 11.53637054 -3.53947531 11.59473663 -8 11 C-10 9.8125 -10 9.8125 -11 8 C-11.4375 5.5 -11.4375 5.5 -11 3 C-7.86231642 -0.63971295 -4.57058639 -0.41550785 0 0 Z " fill="#121212" transform="translate(87,30)"/>
<path d="M0 0 C1.32 0 2.64 0 4 0 C4.66 1.98 5.32 3.96 6 6 C8.0245738 4.06745228 9.42105792 2.36841312 11 0 C11.99 0 12.98 0 14 0 C14 4.62 14 9.24 14 14 C13.01 14 12.02 14 11 14 C10.67 12.02 10.34 10.04 10 8 C9.01 9.485 9.01 9.485 8 11 C7.01 10.67 6.02 10.34 5 10 C4.67 9.01 4.34 8.02 4 7 C3.67 9.31 3.34 11.62 3 14 C2.01 14 1.02 14 0 14 C0 9.38 0 4.76 0 0 Z " fill="#090909" transform="translate(99,101)"/>
<path d="M0 0 C1.65 0 3.3 0 5 0 C5.83764268 1.95649397 6.66999059 3.91525556 7.5 5.875 C7.9640625 6.96554688 8.428125 8.05609375 8.90625 9.1796875 C10 12 10 12 10 14 C8.68 14 7.36 14 6 14 C6 13.01 6 12.02 6 11 C4.02 11 2.04 11 0 11 C-0.33 11.99 -0.66 12.98 -1 14 C-1.99 14 -2.98 14 -4 14 C-3.36843005 8.94744036 -1.86540627 4.70406799 0 0 Z " fill="#292929" transform="translate(150,101)"/>
<path d="M0 0 C2.35546875 0.1953125 2.35546875 0.1953125 5 1 C6.36328125 3.1796875 6.36328125 3.1796875 7.3125 5.875 C7.63863281 6.75929688 7.96476562 7.64359375 8.30078125 8.5546875 C9 11 9 11 9 14 C7.68 13.67 6.36 13.34 5 13 C5 12.34 5 11.68 5 11 C3.02 11 1.04 11 -1 11 C-1 11.99 -1 12.98 -1 14 C-2.32 14 -3.64 14 -5 14 C-4.54636829 12.41531323 -4.08688548 10.83230076 -3.625 9.25 C-3.36976563 8.36828125 -3.11453125 7.4865625 -2.8515625 6.578125 C-2.0790066 4.23919428 -1.16374324 2.16557438 0 0 Z " fill="#292929" transform="translate(288,101)"/>
<path d="M0 0 C4 1 4 1 6.25 4.0625 C7.11625 5.5165625 7.11625 5.5165625 8 7 C8.33 4.69 8.66 2.38 9 0 C9.99 0 10.98 0 12 0 C12 4.62 12 9.24 12 14 C8 13 8 13 5.75 9.9375 C5.1725 8.968125 4.595 7.99875 4 7 C3.67 9.31 3.34 11.62 3 14 C2.01 14 1.02 14 0 14 C0 9.38 0 4.76 0 0 Z " fill="#070707" transform="translate(269,101)"/>
<path d="M0 0 C1.65 0 3.3 0 5 0 C5.67260351 1.76858691 6.33788395 3.53996016 7 5.3125 C7.37125 6.29863281 7.7425 7.28476563 8.125 8.30078125 C9 11 9 11 9 14 C7.68 13.67 6.36 13.34 5 13 C5 12.34 5 11.68 5 11 C3.02 11 1.04 11 -1 11 C-1 11.99 -1 12.98 -1 14 C-2.32 14 -3.64 14 -5 14 C-3.45730076 9.27934033 -1.92205381 4.58335908 0 0 Z " fill="#292929" transform="translate(120,101)"/>
<path d="M0 0 C0 0.99 0 1.98 0 3 C-2.31 3.33 -4.62 3.66 -7 4 C-7 5.98 -7 7.96 -7 10 C-5.35 10.33 -3.7 10.66 -2 11 C-2 10.01 -2 9.02 -2 8 C-2.99 8 -3.98 8 -5 8 C-5 7.34 -5 6.68 -5 6 C-3.02 6 -1.04 6 1 6 C1.04241723 8.33294775 1.04092937 10.66702567 1 13 C0 14 0 14 -3.8125 14.3125 C-6.87493788 14.26301716 -7.84726301 14.09927904 -10.5 12.375 C-12.45562482 9.27859404 -12.60024477 7.60146865 -12 4 C-8.86279363 -0.96724342 -5.35524469 -0.35701631 0 0 Z " fill="#161616" transform="translate(172,101)"/>
<path d="M0 0 C1.32 0 2.64 0 4 0 C4.33 3.3 4.66 6.6 5 10 C6.32 10 7.64 10 9 10 C9.33 6.7 9.66 3.4 10 0 C10.99 0 11.98 0 13 0 C13.10815225 1.76949095 13.18566083 3.54087487 13.25 5.3125 C13.29640625 6.29863281 13.3428125 7.28476563 13.390625 8.30078125 C13 11 13 11 11.2109375 12.86328125 C7.87362908 14.57910589 5.54901834 13.92011587 2 13 C-0.20914 9.68629 -0.22481553 8.6553979 -0.125 4.8125 C-0.10695312 3.91144531 -0.08890625 3.01039062 -0.0703125 2.08203125 C-0.04710937 1.39496094 -0.02390625 0.70789063 0 0 Z " fill="#111111" transform="translate(218,101)"/>
<path d="M0 0 C3.3 0 6.6 0 10 0 C10 0.99 10 1.98 10 3 C7.69 3 5.38 3 3 3 C3 3.66 3 4.32 3 5 C4.98 5 6.96 5 9 5 C9 5.99 9 6.98 9 8 C7.02 8 5.04 8 3 8 C3 8.99 3 9.98 3 11 C5.31 11 7.62 11 10 11 C10 11.99 10 12.98 10 14 C6.7 14 3.4 14 0 14 C0 9.38 0 4.76 0 0 Z " fill="#181818" transform="translate(175,101)"/>
<path d="M0 0 C2.05078125 0.03255208 4.1015625 0.06510417 6.15234375 0.09765625 C6.15234375 1.08765625 6.15234375 2.07765625 6.15234375 3.09765625 C4.17234375 3.09765625 2.19234375 3.09765625 0.15234375 3.09765625 C0.15234375 3.75765625 0.15234375 4.41765625 0.15234375 5.09765625 C2.13234375 5.75765625 4.11234375 6.41765625 6.15234375 7.09765625 C6.48234375 8.74765625 6.81234375 10.39765625 7.15234375 12.09765625 C3.50816635 14.52710785 1.43993103 14.259452 -2.84765625 14.09765625 C-2.84765625 13.10765625 -2.84765625 12.11765625 -2.84765625 11.09765625 C-0.86765625 11.09765625 1.11234375 11.09765625 3.15234375 11.09765625 C2.26944988 8.83836426 2.26944988 8.83836426 -0.41015625 7.78515625 C-1.21453125 7.22828125 -2.01890625 6.67140625 -2.84765625 6.09765625 C-3.22265625 3.47265625 -3.22265625 3.47265625 -2.84765625 1.09765625 C-1.84765625 0.09765625 -1.84765625 0.09765625 0 0 Z " fill="#131313" transform="translate(341.84765625,100.90234375)"/>
<path d="M0 0 C3.3 0 6.6 0 10 0 C10 0.66 10 1.32 10 2 C7.69 2 5.38 2 3 2 C3 3.32 3 4.64 3 6 C4.98 6 6.96 6 9 6 C9 6.66 9 7.32 9 8 C7.02 8 5.04 8 3 8 C3 8.99 3 9.98 3 11 C5.31 11 7.62 11 10 11 C10 11.99 10 12.98 10 14 C6.7 14 3.4 14 0 14 C0 9.38 0 4.76 0 0 Z " fill="#070707" transform="translate(327,101)"/>
<path d="M0 0 C3.63 0 7.26 0 11 0 C11 2.64 11 5.28 11 8 C11.7425 7.484375 12.485 6.96875 13.25 6.4375 C16 5 16 5 18.0625 4.875 C21.31888744 6.76580561 22.35834839 9.65806636 24 13 C24 13.66 24 14.32 24 15 C23.01 15 22.02 15 21 15 C19.02 11.535 19.02 11.535 17 8 C16.236875 8.495 15.47375 8.99 14.6875 9.5 C12 11 12 11 9 11 C9 8.03 9 5.06 9 2 C6.36 2 3.72 2 1 2 C1 3.98 1 5.96 1 8 C0.67 8 0.34 8 0 8 C0 5.36 0 2.72 0 0 Z " fill="#FDFDFD" transform="translate(171,38)"/>
<path d="M0 0 C0 0.99 0 1.98 0 3 C-2.31 3.33 -4.62 3.66 -7 4 C-7 5.65 -7 7.3 -7 9 C-4.69 9.66 -2.38 10.32 0 11 C0 11.99 0 12.98 0 14 C-7.28358209 14.35820896 -7.28358209 14.35820896 -10 13 C-11.63102777 9.73794446 -11.51981506 6.56444611 -11 3 C-8.8254183 -1.34916341 -4.24620661 -0.20882983 0 0 Z " fill="#111111" transform="translate(325,101)"/>
<path d="M0 0 C1.32 0.33 2.64 0.66 4 1 C4.33 2.32 4.66 3.64 5 5 C5.66 5 6.32 5 7 5 C7.66 3.35 8.32 1.7 9 0 C9.99 0 10.98 0 12 0 C11.566875 0.9590625 11.566875 0.9590625 11.125 1.9375 C9.6752275 5.88410292 8.84221938 9.8874607 8 14 C6.68 14 5.36 14 4 14 C3.87882813 13.40832031 3.75765625 12.81664063 3.6328125 12.20703125 C2.73255357 7.96196415 1.79543379 3.97560339 0 0 Z " fill="#151515" transform="translate(191,101)"/>
<path d="M0 0 C2.97 0 5.94 0 9 0 C9 0.66 9 1.32 9 2 C7.02 2 5.04 2 3 2 C3 2.99 3 3.98 3 5 C4.98 5 6.96 5 9 5 C9 5.99 9 6.98 9 8 C7.02 8 5.04 8 3 8 C3 9.98 3 11.96 3 14 C2.01 14 1.02 14 0 14 C0 9.38 0 4.76 0 0 Z " fill="#0D0D0D" transform="translate(252,101)"/>
<path d="M0 0 C0.66 1.32 1.32 2.64 2 4 C1.01 4.99 0.02 5.98 -1 7 C0.65 7.99 2.3 8.98 4 10 C3.42655063 12.86724686 3.1385485 13.8614515 1 16 C0.34 16 -0.32 16 -1 16 C-0.814375 14.88625 -0.814375 14.88625 -0.625 13.75 C-0.71893347 10.65688967 -0.71893347 10.65688967 -4 8.6875 C-4.99 8.130625 -5.98 7.57375 -7 7 C-4.66666667 4.66666667 -2.33333333 2.33333333 0 0 Z " fill="#DADADA" transform="translate(191,50)"/>
<path d="M0 0 C1.32 0 2.64 0 4 0 C4 4.62 4 9.24 4 14 C2.68 14 1.36 14 0 14 C0 9.38 0 4.76 0 0 Z " fill="#252525" transform="translate(263,101)"/>
<path d="M0 0 C0.99 0.33 1.98 0.66 3 1 C1.37660195 2.70884005 -0.29319053 4.37446717 -2 6 C-2.66 6 -3.32 6 -4 6 C-2.75023244 9.65316671 -2.32901247 10.78065836 1 13 C0.67 13.66 0.34 14.32 0 15 C-1.8125 14.8125 -1.8125 14.8125 -4 14 C-5.8125 11.75 -5.8125 11.75 -7 9 C-6.6875 6.1875 -6.6875 6.1875 -6 4 C-4.02 3.34 -2.04 2.68 0 2 C0 1.34 0 0.68 0 0 Z " fill="#E8E8E8" transform="translate(165,55)"/>
<path d="M0 0 C1.66611905 -0.042721 3.33382885 -0.04063832 5 0 C6 1 6 1 6.0625 4.0625 C6.041875 5.031875 6.02125 6.00125 6 7 C4.34385343 7.38218767 2.67542976 7.71395102 1 8 C0 7 0 7 -0.0625 3.4375 C-0.041875 2.303125 -0.02125 1.16875 0 0 Z " fill="#F4F4F4" transform="translate(207,104)"/>
<path d="M0 0 C3.51882641 1.65591831 4.43687413 4.56345805 6.125 8 C6.125 8.66 6.125 9.32 6.125 10 C5.135 10 4.145 10 3.125 10 C1.145 6.535 1.145 6.535 -0.875 3 C-2.855 3.99 -2.855 3.99 -4.875 5 C-4.5 3.0625 -4.5 3.0625 -3.875 1 C-1.875 0 -1.875 0 0 0 Z " fill="#EAEAEA" transform="translate(188.875,43)"/>
<path d="M0 0 C0.99 0.66 1.98 1.32 3 2 C3.29296875 4.1640625 3.29296875 4.1640625 3.1875 6.625 C3.16042969 7.44226562 3.13335937 8.25953125 3.10546875 9.1015625 C3.07066406 9.72804688 3.03585938 10.35453125 3 11 C0.03 10.505 0.03 10.505 -3 10 C-3 9.01 -3 8.02 -3 7 C-2.34 7 -1.68 7 -1 7 C-0.67 4.69 -0.34 2.38 0 0 Z " fill="#D1D1D1" transform="translate(170,38)"/>
<path d="M0 0 C0.66 0.33 1.32 0.66 2 1 C2 2.32 2 3.64 2 5 C2.99 5 3.98 5 5 5 C5 5.99 5 6.98 5 8 C3.33388095 8.042721 1.66617115 8.04063832 0 8 C-1 7 -1 7 -1.125 4 C-1 1 -1 1 0 0 Z " fill="#EBEBEB" transform="translate(165,104)"/>
<path d="M0 0 C0.66 0.33 1.32 0.66 2 1 C2 4.33333333 2 7.66666667 2 11 C1.67 11 1.34 11 1 11 C1 8.69 1 6.38 1 4 C-0.65 4.66 -2.3 5.32 -4 6 C-3.6875 4.125 -3.6875 4.125 -3 2 C-2.01 1.34 -1.02 0.68 0 0 Z " fill="#CECECE" transform="translate(169,64)"/>
<path d="M0 0 C1.32 0 2.64 0 4 0 C5.27162597 3.8148779 4.64661571 5.3931275 3 9 C0.875 9.875 0.875 9.875 -1 10 C0.19899698 6.9168649 1.47700477 3.93720508 3 1 C2.01 0.67 1.02 0.34 0 0 Z " fill="#D9D9D9" transform="translate(200,100)"/>
<path d="M0 0 C2.31 0 4.62 0 7 0 C7.33 0.99 7.66 1.98 8 3 C7.34 3 6.68 3 6 3 C5.67 3.66 5.34 4.32 5 5 C5 4.01 5 3.02 5 2 C3.35 2 1.7 2 0 2 C0 1.34 0 0.68 0 0 Z " fill="#F0F0F0" transform="translate(331,104)"/>
<path d="M0 0 C1.98 0 3.96 0 6 0 C6.33 0.99 6.66 1.98 7 3 C4.69 3 2.38 3 0 3 C0 2.01 0 1.02 0 0 Z " fill="#1E1E1E" transform="translate(339,112)"/>
<path d="M0 0 C-0.57344937 2.86724686 -0.8614515 3.8614515 -3 6 C-3.66 6 -4.32 6 -5 6 C-4.625 3.5625 -4.625 3.5625 -4 1 C-2 0 -2 0 0 0 Z " fill="#CDCDCD" transform="translate(195,60)"/>
</svg>
